<svg width="178" height="50" viewBox="0 0 178 50" fill="none" xmlns="http://www.w3.org/2000/svg">
<path d="M61.2603 22.9342H61.2819L68.5519 15.9146H70.7739L63.0724 23.0004L71.2054 31.5431H68.9187L61.2819 23.2212H61.2603V31.5431H59.707V15.9146H61.2603V22.9342ZM79.2782 24.8767C79.2782 23.979 79.0481 23.3094 78.5878 22.868C78.1276 22.4265 77.4589 22.2058 76.5815 22.2058C75.9775 22.2058 75.4166 22.3161 74.8989 22.5368C74.3812 22.7576 73.9424 23.0519 73.583 23.4198L72.7631 22.4265C73.1803 21.9997 73.7268 21.6465 74.4027 21.3669C75.093 21.0873 75.8697 20.9475 76.7325 20.9475C77.2791 20.9475 77.7896 21.0285 78.2642 21.1903C78.7388 21.3375 79.1559 21.5656 79.5154 21.8746C79.875 22.1837 80.1554 22.5736 80.3568 23.0445C80.5581 23.5155 80.6588 24.0673 80.6588 24.7001V29.2254C80.6588 29.6227 80.6732 30.0347 80.7019 30.4615C80.7307 30.8883 80.7739 31.2488 80.8314 31.5431H79.5154C79.4723 31.293 79.4364 31.0207 79.4076 30.7264C79.3788 30.4321 79.3644 30.1451 79.3644 29.8655H79.3213C78.861 30.5571 78.3361 31.0575 77.7465 31.3665C77.1712 31.6609 76.4737 31.808 75.6539 31.808C75.2656 31.808 74.8629 31.7492 74.4458 31.6314C74.0431 31.5284 73.6692 31.3518 73.3241 31.1017C72.9933 30.8515 72.7128 30.5277 72.4827 30.1304C72.267 29.7331 72.1591 29.2474 72.1591 28.6734C72.1591 27.8788 72.3532 27.2533 72.7416 26.7971C73.1443 26.3263 73.6764 25.9804 74.3379 25.7597C74.9995 25.5242 75.7546 25.377 76.6031 25.3182C77.4661 25.2446 78.3577 25.2079 79.2782 25.2079V24.8767ZM78.8467 26.3778C78.2427 26.3778 77.6314 26.4072 77.013 26.4661C76.409 26.5102 75.8553 26.6132 75.3519 26.7751C74.8629 26.9223 74.4602 27.143 74.1438 27.4373C73.8274 27.7316 73.6692 28.1216 73.6692 28.6073C73.6692 28.9752 73.734 29.2842 73.8634 29.5344C74.0072 29.7846 74.1941 29.9906 74.4243 30.1524C74.6544 30.2996 74.9061 30.41 75.1793 30.4836C75.467 30.5425 75.7546 30.5719 76.0422 30.5719C76.56 30.5719 77.0202 30.4836 77.4229 30.307C77.8256 30.1157 78.1636 29.8655 78.4368 29.5564C78.7101 29.2327 78.9186 28.8648 79.0624 28.4528C79.2063 28.0407 79.2782 27.6065 79.2782 27.1503V26.3778H78.8467ZM85.9049 36.841H84.4379V21.2124H85.9049V23.0004H85.9696C86.3867 22.3234 86.9404 21.8157 87.6307 21.4773C88.3355 21.1241 89.0473 20.9475 89.7665 20.9475C90.5574 20.9475 91.2694 21.0873 91.902 21.3669C92.5493 21.6465 93.0958 22.0291 93.542 22.5148C94.0016 23.0004 94.3542 23.5744 94.5985 24.2366C94.8576 24.8988 94.9868 25.6125 94.9868 26.3778C94.9868 27.143 94.8576 27.8567 94.5985 28.5189C94.3542 29.1812 94.0016 29.7551 93.542 30.2408C93.0958 30.7264 92.5493 31.109 91.902 31.3886C91.2694 31.6683 90.5574 31.808 89.7665 31.808C89.0473 31.808 88.3355 31.6388 87.6307 31.3003C86.9404 30.9471 86.3867 30.4468 85.9696 29.7992H85.9049V36.841ZM93.4336 26.3778C93.4336 25.8038 93.3475 25.2667 93.1752 24.7663C93.0023 24.2512 92.7506 23.8098 92.4201 23.4419C92.1032 23.0593 91.7081 22.7576 91.2337 22.5368C90.7586 22.3161 90.2195 22.2058 89.6154 22.2058C89.0545 22.2058 88.5368 22.3161 88.0622 22.5368C87.5876 22.7429 87.1777 23.0372 86.8325 23.4198C86.4874 23.7878 86.2141 24.2292 86.0127 24.7443C85.8258 25.2446 85.7323 25.7891 85.7323 26.3778C85.7323 26.9664 85.8258 27.5183 86.0127 28.0333C86.2141 28.5337 86.4874 28.9678 86.8325 29.3357C87.1777 29.7036 87.5876 29.9979 88.0622 30.2187C88.5368 30.4247 89.0545 30.5277 89.6154 30.5277C90.2195 30.5277 90.7586 30.4247 91.2337 30.2187C91.7081 29.9979 92.1032 29.7036 92.4201 29.3357C92.7506 28.9531 93.0023 28.5116 93.1752 28.0112C93.3475 27.4962 93.4336 26.9517 93.4336 26.3778ZM102.683 22.4706H99.8362V28.4969C99.8362 28.8795 99.8718 29.1959 99.9438 29.4461C100.016 29.6962 100.116 29.8949 100.246 30.0421C100.389 30.1745 100.555 30.2702 100.742 30.3291C100.929 30.3732 101.13 30.3953 101.346 30.3953C101.548 30.3953 101.756 30.3658 101.971 30.307C102.202 30.2481 102.418 30.1672 102.619 30.0642L102.683 31.3665C102.424 31.4695 102.151 31.5431 101.864 31.5873C101.591 31.6461 101.288 31.6755 100.958 31.6755C100.684 31.6755 100.397 31.6388 100.095 31.5652C99.7924 31.4916 99.5125 31.3518 99.2534 31.1458C98.9943 30.9398 98.7789 30.6601 98.606 30.307C98.4479 29.9538 98.3691 29.4902 98.3691 28.9163V22.4706H96.2762V21.2124H98.3691V18.2986H99.8362V21.2124H102.683V22.4706ZM112.314 31.5431C112.285 31.2635 112.263 30.9545 112.248 30.616C112.234 30.2775 112.227 29.9979 112.227 29.7772H112.184C111.896 30.3806 111.429 30.8735 110.782 31.2562C110.134 31.624 109.451 31.808 108.732 31.808C107.452 31.808 106.488 31.418 105.842 30.6381C105.208 29.8581 104.892 28.828 104.892 27.5477V21.2124H106.359V26.9296C106.359 27.4741 106.402 27.9671 106.488 28.4086C106.575 28.8501 106.719 29.2327 106.92 29.5564C107.136 29.8655 107.416 30.1083 107.762 30.2849C108.121 30.4615 108.566 30.5498 109.099 30.5498C109.487 30.5498 109.861 30.4688 110.221 30.307C110.595 30.1451 110.925 29.9023 111.213 29.5785C111.501 29.24 111.731 28.8207 111.903 28.3203C112.076 27.8053 112.162 27.2018 112.162 26.5102V21.2124H113.629V29.2695C113.629 29.5491 113.637 29.9096 113.651 30.3511C113.665 30.7926 113.687 31.1899 113.715 31.5431H112.314ZM117.514 23.486C117.514 23.2064 117.506 22.8459 117.492 22.4044C117.478 21.9629 117.456 21.5656 117.427 21.2124H118.829C118.858 21.492 118.88 21.8011 118.894 22.1395C118.909 22.478 118.916 22.7576 118.916 22.9783H118.959C119.246 22.3749 119.678 21.8893 120.253 21.5214C120.829 21.1388 121.476 20.9475 122.195 20.9475C122.382 20.9475 122.547 20.9548 122.691 20.9696C122.849 20.9843 123.008 21.0137 123.166 21.0579L122.971 22.4706C122.885 22.4412 122.741 22.4118 122.54 22.3823C122.339 22.3529 122.137 22.3382 121.936 22.3382C121.548 22.3382 121.174 22.4118 120.814 22.5589C120.454 22.7061 120.138 22.9415 119.865 23.2653C119.606 23.5744 119.39 23.979 119.217 24.4794C119.059 24.965 118.981 25.5537 118.981 26.2453V31.5431H117.514V23.486ZM132.609 25.5831C132.566 24.6118 132.257 23.8098 131.682 23.177C131.121 22.5295 130.316 22.2058 129.266 22.2058C128.777 22.2058 128.324 22.3014 127.907 22.4927C127.489 22.6693 127.123 22.9195 126.806 23.2432C126.49 23.5522 126.238 23.9128 126.051 24.3249C125.864 24.7222 125.757 25.1416 125.728 25.5831H132.609ZM134.098 26.0687C134.098 26.1718 134.098 26.2821 134.098 26.3998C134.098 26.5176 134.091 26.6426 134.076 26.7751H125.706C125.721 27.2902 125.821 27.7758 126.008 28.232C126.195 28.6882 126.454 29.0855 126.785 29.424C127.116 29.7625 127.504 30.0347 127.95 30.2408C128.396 30.4321 128.878 30.5277 129.395 30.5277C130.158 30.5277 130.812 30.3511 131.358 29.9979C131.919 29.6301 132.344 29.2106 132.631 28.7397L133.731 29.6227C133.128 30.4026 132.459 30.9618 131.725 31.3003C131.006 31.6388 130.229 31.808 129.395 31.808C128.648 31.808 127.95 31.6755 127.302 31.4107C126.67 31.1311 126.123 30.7485 125.663 30.2628C125.203 29.7772 124.836 29.2033 124.563 28.541C124.304 27.8788 124.174 27.1577 124.174 26.3778C124.174 25.5978 124.304 24.8767 124.563 24.2145C124.822 23.5522 125.181 22.9783 125.642 22.4927C126.102 22.0071 126.641 21.6318 127.259 21.3669C127.878 21.0873 128.547 20.9475 129.266 20.9475C130.057 20.9475 130.754 21.0873 131.358 21.3669C131.963 21.6318 132.466 21.9997 132.868 22.4706C133.271 22.9268 133.573 23.464 133.774 24.0821C133.99 24.7001 134.098 25.3624 134.098 26.0687ZM156.129 31.5431L156.216 20.4839H156.152L152.182 31.5431H149.593L145.731 20.4839H145.667L145.753 31.5431H142.28V15.9146H147.522L150.995 25.9363H151.081L154.404 15.9146H159.732V31.5431H156.129ZM177.143 23.6847C177.143 25.0533 176.892 26.2379 176.388 27.2387C175.9 28.2246 175.245 29.0414 174.425 29.6889C173.62 30.3217 172.706 30.7926 171.686 31.1017C170.664 31.396 169.629 31.5431 168.579 31.5431H162.884V15.9146H168.406C169.485 15.9146 170.549 16.047 171.599 16.3119C172.649 16.5621 173.584 16.9888 174.404 17.5922C175.223 18.1809 175.885 18.9755 176.388 19.9762C176.892 20.9769 177.143 22.2131 177.143 23.6847ZM173.303 23.6847C173.303 22.8017 173.159 22.0733 172.872 21.4994C172.599 20.9107 172.225 20.4471 171.75 20.1087C171.29 19.7555 170.758 19.5053 170.154 19.3582C169.564 19.211 168.953 19.1374 168.32 19.1374H166.486V28.2761H168.234C168.895 28.2761 169.528 28.2026 170.132 28.0554C170.751 27.8935 171.29 27.636 171.75 27.2828C172.225 26.9296 172.599 26.4587 172.872 25.8701C173.159 25.2814 173.303 24.5529 173.303 23.6847Z" fill="black"/>
<path d="M25.0481 28.8987C23.7331 25.3468 20.7214 23.8484 21.5977 19.9233C23.0764 13.2994 34.8368 9.02714 39.7552 11.6628C46.7961 15.4358 48.8761 23.2369 46.6906 30.3654C44.4863 37.5564 39.6103 44.1259 32.6609 47.2845C28.5538 49.1512 23.6985 50.04 19.1931 49.9986C18.3346 49.9909 17.4766 49.9442 16.6225 49.858C15.7697 49.7719 14.8482 49.6544 14.019 49.4517C14.3046 49.5215 16.1217 49.1758 16.5849 49.1002C17.4906 48.9519 18.3891 48.7583 19.2755 48.5205C22.787 47.5777 27.5335 45.8954 28.7358 42.0304C28.7411 42.0126 28.7464 41.9953 28.7522 41.9775C29.6506 38.9898 28.0738 35.7778 26.8652 33.1147C26.233 31.7212 25.5801 30.3345 25.0486 28.8987H25.0481Z" fill="url(#paint0_linear_69_403)"/>
<path d="M37.6466 14.5652L29.2417 14.5575L29.2494 6.45546C29.2504 5.53292 28.5036 4.79094 27.5738 4.78998L23.0521 4.78565C22.1224 4.78468 21.3741 5.5257 21.3732 6.44775L21.3655 14.5498L12.9606 14.5421C12.1676 14.5411 11.5286 15.1738 11.5281 15.9606L11.5233 20.9247C11.5224 21.7115 12.1603 22.3451 12.9533 22.3456L21.3582 22.3533L21.3505 30.4554C21.3496 31.3779 22.0964 32.1199 23.0261 32.1208L27.5478 32.1252C28.4776 32.1261 29.2258 31.3851 29.2268 30.4631L29.2345 22.361L37.6394 22.3687C38.4324 22.3697 39.0713 21.737 39.0718 20.9503L39.0766 15.9861C39.0776 15.1993 38.4396 14.5657 37.6466 14.5652Z" fill="white"/>
<mask id="mask0_69_403" style="mask-type:luminance" maskUnits="userSpaceOnUse" x="-1" y="0" width="49" height="48">
<path d="M23.7701 47.7202C36.8981 47.7202 47.5404 37.0628 47.5404 23.9162C47.5404 10.7697 36.8981 0.112305 23.7701 0.112305C10.6422 0.112305 -0.00012207 10.7697 -0.00012207 23.9162C-0.00012207 37.0628 10.6422 47.7202 23.7701 47.7202Z" fill="white"/>
</mask>
<g mask="url(#mask0_69_403)">
<path d="M27.8549 44.0084C29.036 42.7435 29.8969 41.1825 30.2446 39.4857C30.6505 37.5053 30.8132 35.3882 29.8579 33.56C29.2522 32.4011 28.2281 31.5425 27.2906 30.6306C26.1534 29.5246 24.8947 28.5395 23.5263 27.7344C23.2264 27.5577 22.9264 27.3911 22.6072 27.2693C22.5176 27.2351 22.3452 27.2722 22.2697 27.1932C22.1454 27.0628 22.1695 27.0714 22.2085 26.9015C22.2961 26.5187 23.1671 26.0781 23.4541 25.8706C24.0367 25.4483 24.6492 25.0285 25.136 24.493C25.6141 23.9673 25.9526 23.2715 25.3016 22.7279C20.9744 19.1143 12.9446 15.0163 15.1855 10.1817C18.8154 2.34928 24.5875 0.197497 31.6934 1.82108C32.4994 2.0055 34.24 2.53754 34.24 2.53754C29.1097 -1.64758 18.3633 -0.820855 11.271 3.54338C1.95844 9.27408 -2.28253 21.1525 1.19046 31.5069C1.37295 32.0505 1.5747 32.5874 1.79666 33.1161C3.1665 36.3839 5.27399 39.3297 7.92508 41.6779C9.95119 43.4725 12.2219 45.0604 14.7622 46.0027C18.1587 47.2623 21.7935 47.8506 25.1374 46.0879C26.1466 45.5559 27.0706 44.8471 27.8545 44.0079L27.8549 44.0084Z" fill="url(#paint1_linear_69_403)"/>
</g>
<mask id="mask1_69_403" style="mask-type:luminance" maskUnits="userSpaceOnUse" x="0" y="0" width="48" height="48">
<path d="M5.23963 38.7038C-2.97701 28.4509 -1.3385 13.4684 8.89992 5.24019C19.1383 -2.98849 34.0992 -1.34709 42.3159 8.90578C50.5325 19.1586 48.894 34.1412 38.6556 42.3694C28.4172 50.5981 13.4563 48.9567 5.23963 38.7038Z" fill="white"/>
</mask>
<g mask="url(#mask1_69_403)">
<path d="M7.19605 11.6945C7.15416 13.0201 7.34194 14.3543 7.74976 15.6043C8.65159 18.3651 10.6589 20.762 13.4039 21.8121C13.8021 21.9643 20.4067 22.6249 22.2922 20.6098C26.0734 16.5696 31.7492 13.3451 37.4597 14.3119C40.2027 14.7766 42.7339 16.3039 44.4875 18.4547C45.672 19.9073 47.4925 22.3312 47.5498 24.2875C50.3554 12.9878 44.9098 8.29523 35.3844 2.97475C34.8842 2.69549 34.3743 2.43452 33.8547 2.19233C30.6456 0.697782 27.1071 -0.0620103 23.5687 -0.0128983C20.8641 0.024658 18.1172 0.379516 15.6048 1.3945C13.5267 2.23374 11.6349 3.27665 10.0681 4.80538C8.21247 6.61627 7.27694 9.13783 7.19605 11.6945Z" fill="url(#paint2_linear_69_403)"/>
</g>
<mask id="mask2_69_403" style="mask-type:luminance" maskUnits="userSpaceOnUse" x="0" y="0" width="48" height="48">
<path d="M5.23963 38.7038C-2.97701 28.4509 -1.3385 13.4684 8.89992 5.24019C19.1383 -2.98849 34.0992 -1.34709 42.3159 8.90578C50.5325 19.1586 48.894 34.1412 38.6556 42.3694C28.4172 50.5981 13.4563 48.9567 5.23963 38.7038Z" fill="white"/>
</mask>
<g mask="url(#mask2_69_403)">
<path d="M27.2855 30.755C20.4454 25.8948 24.3113 10.8728 33.9387 10.4549C37.6365 10.294 41.2135 12.2937 43.7674 14.8369C47.8581 18.9103 48.2655 25.2251 46.6895 30.3655C44.3326 38.0544 38.1315 45.4015 30.5278 48.1368C24.4933 50.3074 17.8839 50.1653 11.6664 48.9221C14.2404 48.9789 17.229 48.952 19.7265 48.445C23.1172 47.7564 26.2584 46.4227 28.5807 43.5891C31.0522 40.5731 31.4489 35.7967 29.1339 32.5842C28.6245 31.8769 27.9957 31.2601 27.2855 30.7555V30.755Z" fill="url(#paint3_linear_69_403)"/>
</g>
<path d="M35.9885 19.991L27.5836 19.9833L27.5913 11.8812C27.5923 10.9587 26.8455 10.2167 25.9157 10.2158L21.394 10.2114C20.4643 10.2105 19.7161 10.9515 19.7151 11.8735L19.7074 19.9756L11.3025 19.9679C10.5095 19.9669 9.87053 20.5996 9.87005 21.3863L9.86524 26.3505C9.86427 27.1373 10.5022 27.7709 11.2953 27.7714L19.7002 27.7791L19.6925 35.8811C19.6915 36.8037 20.4383 37.5457 21.3681 37.5466L25.8897 37.551C26.8195 37.5519 27.5677 36.8109 27.5687 35.8889L27.5764 27.7868L35.9813 27.7945C36.7743 27.7955 37.4132 27.1628 37.4137 26.376L37.4185 21.4119C37.4195 20.6251 36.7815 19.9915 35.9885 19.991Z" fill="white"/>
<defs>
<linearGradient id="paint0_linear_69_403" x1="19.1089" y1="50.9586" x2="47.326" y2="3.48714" gradientUnits="userSpaceOnUse">
<stop offset="0.03" stop-color="#ADD9F7"/>
<stop offset="0.12" stop-color="#A5D2F0"/>
<stop offset="0.26" stop-color="#8FBFDE"/>
<stop offset="0.42" stop-color="#6CA0C0"/>
<stop offset="0.61" stop-color="#3B7597"/>
<stop offset="0.74" stop-color="#155477"/>
</linearGradient>
<linearGradient id="paint1_linear_69_403" x1="11.7845" y1="4.01827" x2="34.0993" y2="53.4545" gradientUnits="userSpaceOnUse">
<stop stop-color="#ADD9F7"/>
<stop offset="0.09" stop-color="#A4D1F0"/>
<stop offset="0.23" stop-color="#8EBEDD"/>
<stop offset="0.41" stop-color="#6A9EBE"/>
<stop offset="0.61" stop-color="#387394"/>
<stop offset="0.74" stop-color="#155477"/>
</linearGradient>
<linearGradient id="paint2_linear_69_403" x1="44.8804" y1="19.6353" x2="6.85708" y2="5.89018" gradientUnits="userSpaceOnUse">
<stop stop-color="#ADD9F7"/>
<stop offset="0.12" stop-color="#A4D1F0"/>
<stop offset="0.31" stop-color="#8EBEDD"/>
<stop offset="0.54" stop-color="#6A9EBE"/>
<stop offset="0.81" stop-color="#387394"/>
<stop offset="0.98" stop-color="#155477"/>
</linearGradient>
<linearGradient id="paint3_linear_69_403" x1="23.9007" y1="53.7002" x2="43.6643" y2="1.38536" gradientUnits="userSpaceOnUse">
<stop stop-color="#ADD9F7"/>
<stop offset="0.1" stop-color="#A5D2F0"/>
<stop offset="0.25" stop-color="#8FBFDE"/>
<stop offset="0.43" stop-color="#6CA0C0"/>
<stop offset="0.64" stop-color="#3B7597"/>
<stop offset="0.78" stop-color="#155477"/>
</linearGradient>
</defs>
</svg>
